<?xml version="1.0" encoding="UTF-8" standalone="no"?>
<!DOCTYPE svg PUBLIC "-//W3C//DTD SVG 1.1//EN"
 "http://www.w3.org/Graphics/SVG/1.1/DTD/svg11.dtd">
<!-- Generated by graphviz version 10.0.1 (20240210.2158)
 -->
<!-- Title: G Pages: 1 -->
<svg width="1559pt" height="1524pt"
 viewBox="0.00 0.00 1559.25 1524.00" xmlns="http://www.w3.org/2000/svg" xmlns:xlink="http://www.w3.org/1999/xlink">
<g id="graph0" class="graph" transform="scale(1 1) rotate(0) translate(36 1488)">
<title>G</title>
<polygon fill="#f7f7f7" stroke="none" points="-36,36 -36,-1488 1523.25,-1488 1523.25,36 -36,36"/>
<!-- modulesassetmodelsasset -->
<g id="node1" class="node">
<title>modulesassetmodelsasset</title>
<polygon fill="none" stroke="black" points="109.75,-327 9.75,-327 9.75,-227 109.75,-227 109.75,-327"/>
<polygon fill="#d3d3d3" stroke="none" points="9.75,-287.75 9.75,-327 109.75,-327 109.75,-287.75 9.75,-287.75"/>
<polygon fill="none" stroke="black" points="9.75,-287.75 9.75,-327 109.75,-327 109.75,-287.75 9.75,-287.75"/>
<text text-anchor="start" x="43.62" y="-302.7" font-family="Helvetica Neue" font-size="14.00" fill="#333333">Asset</text>
</g>
<!-- modulesfavoritemodelsfavorite -->
<g id="node2" class="node">
<title>modulesfavoritemodelsfavorite</title>
<polygon fill="none" stroke="black" points="368,-468 268,-468 268,-368 368,-368 368,-468"/>
<polygon fill="#d3d3d3" stroke="none" points="268,-428.75 268,-468 368,-468 368,-428.75 268,-428.75"/>
<polygon fill="none" stroke="black" points="268,-428.75 268,-468 368,-468 368,-428.75 268,-428.75"/>
<text text-anchor="start" x="293.25" y="-443.7" font-family="Helvetica Neue" font-size="14.00" fill="#333333">Favorite</text>
</g>
<!-- modulesassetmodelsasset&#45;&gt;modulesfavoritemodelsfavorite -->
<g id="edge1" class="edge">
<title>modulesassetmodelsasset:id&#45;&gt;modulesfavoritemodelsfavorite:favoritable_id</title>
<path fill="none" stroke="#003049" stroke-width="1.8" d="M110.16,-304.19C151.99,-327.2 212.1,-360.28 256.75,-384.85"/>
<polygon fill="#003049" stroke="#003049" stroke-width="1.8" points="254.91,-387.83 265.36,-389.58 258.28,-381.7 254.91,-387.83"/>
<text text-anchor="middle" x="193.75" y="-353.95" font-family="Helvetica Neue" font-size="14.00"> </text>
<text text-anchor="middle" x="220.58" y="-331.22" font-family="Helvetica Neue" font-size="14.00">MorphMany</text>
<text text-anchor="middle" x="220.58" y="-313.97" font-family="Helvetica Neue" font-size="14.00">favorites</text>
</g>
<!-- service_asset -->
<g id="node3" class="node">
<title>service_asset</title>
<polygon fill="none" stroke="black" points="368,-280 268,-280 268,-180 368,-180 368,-280"/>
<polygon fill="#d3d3d3" stroke="none" points="268,-240.75 268,-280 368,-280 368,-240.75 268,-240.75"/>
<polygon fill="none" stroke="black" points="268,-240.75 268,-280 368,-280 368,-240.75 268,-240.75"/>
<text text-anchor="start" x="303.38" y="-255.7" font-family="Helvetica Neue" font-size="14.00" fill="#333333">Pivot</text>
</g>
<!-- modulesassetmodelsasset&#45;&gt;service_asset -->
<g id="edge2" class="edge">
<title>modulesassetmodelsasset:id&#45;&gt;service_asset:asset_id</title>
<path fill="none" stroke="#003049" stroke-width="1.8" d="M110.16,-267.94C151.55,-260.35 210.83,-249.47 255.32,-241.31"/>
<polygon fill="#003049" stroke="#003049" stroke-width="1.8" points="255.86,-244.77 265.06,-239.53 254.6,-237.89 255.86,-244.77"/>
<text text-anchor="middle" x="193.75" y="-256.95" font-family="Helvetica Neue" font-size="14.00"> </text>
<text text-anchor="middle" x="231.86" y="-275.83" font-family="Helvetica Neue" font-size="14.00">BelongsToMany</text>
<text text-anchor="middle" x="231.86" y="-258.58" font-family="Helvetica Neue" font-size="14.00">services</text>
</g>
<!-- modulesassetmodelshall -->
<g id="node5" class="node">
<title>modulesassetmodelshall</title>
<polygon fill="none" stroke="black" points="368,-100 268,-100 268,0 368,0 368,-100"/>
<polygon fill="#d3d3d3" stroke="none" points="268,-60.75 268,-100 368,-100 368,-60.75 268,-60.75"/>
<polygon fill="none" stroke="black" points="268,-60.75 268,-100 368,-100 368,-60.75 268,-60.75"/>
<text text-anchor="start" x="306.38" y="-75.7" font-family="Helvetica Neue" font-size="14.00" fill="#333333">Hall</text>
</g>
<!-- modulesassetmodelsasset&#45;&gt;modulesassetmodelshall -->
<g id="edge4" class="edge">
<title>modulesassetmodelsasset:id&#45;&gt;modulesassetmodelshall:asset_id</title>
<path fill="none" stroke="#fcbf49" stroke-width="1.8" d="M110.16,-233.23C151.99,-196.18 212.1,-142.93 256.75,-103.38"/>
<polygon fill="#fcbf49" stroke="#fcbf49" stroke-width="1.8" points="259.81,-100.66 270.28,-97.4 264,-96.95 266.84,-94.43 266.84,-94.43 266.84,-94.43 264,-96.95 264.31,-90.66 259.81,-100.66"/>
<text text-anchor="middle" x="193.75" y="-164.95" font-family="Helvetica Neue" font-size="14.00"> </text>
<text text-anchor="middle" x="154.95" y="-189.5" font-family="Helvetica Neue" font-size="14.00">HasMany</text>
<text text-anchor="middle" x="154.95" y="-172.25" font-family="Helvetica Neue" font-size="14.00">halls</text>
</g>
<!-- modulesfavoritemodelsfavorite&#45;&gt;modulesfavoritemodelsfavorite -->
<g id="edge15" class="edge">
<title>modulesfavoritemodelsfavorite:favoritable_id&#45;&gt;modulesfavoritemodelsfavorite</title>
<path fill="none" stroke="#003049" stroke-width="1.8" d="M297.15,-468.45C290.48,-504.34 297.43,-540 318,-540 336.16,-540 343.7,-512.21 340.63,-481"/>
<polygon fill="#003049" stroke="#003049" stroke-width="1.8" points="344.1,-480.55 339.23,-471.14 337.17,-481.54 344.1,-480.55"/>
<text text-anchor="middle" x="318" y="-543.95" font-family="Helvetica Neue" font-size="14.00"> </text>
<text text-anchor="middle" x="283.79" y="-521.26" font-family="Helvetica Neue" font-size="14.00">MorphTo</text>
<text text-anchor="middle" x="283.79" y="-504.01" font-family="Helvetica Neue" font-size="14.00">favoritable</text>
</g>
<!-- modulesusermodelsuser -->
<g id="node7" class="node">
<title>modulesusermodelsuser</title>
<polygon fill="none" stroke="black" points="645.75,-859 545.75,-859 545.75,-759 645.75,-759 645.75,-859"/>
<polygon fill="#d3d3d3" stroke="none" points="545.75,-819.75 545.75,-859 645.75,-859 645.75,-819.75 545.75,-819.75"/>
<polygon fill="none" stroke="black" points="545.75,-819.75 545.75,-859 645.75,-859 645.75,-819.75 545.75,-819.75"/>
<text text-anchor="start" x="581.88" y="-834.7" font-family="Helvetica Neue" font-size="14.00" fill="#333333">User</text>
</g>
<!-- modulesfavoritemodelsfavorite&#45;&gt;modulesusermodelsuser -->
<g id="edge16" class="edge">
<title>modulesfavoritemodelsfavorite:user_id&#45;&gt;modulesusermodelsuser:id</title>
<path fill="none" stroke="#f77f00" stroke-width="1.8" d="M429.8,-570.51C438.79,-582.89 444.5,-590.75 444.5,-590.75 444.5,-590.75 512.96,-690.2 557.46,-754.83"/>
<polygon fill="#f77f00" stroke="#f77f00" stroke-width="1.8" points="361.87,-477.01 359.63,-466.27 358.58,-472.48 356.34,-469.41 356.34,-469.41 356.34,-469.41 358.58,-472.48 352.35,-471.56 361.87,-477.01"/>
<polygon fill="#f77f00" stroke="#f77f00" stroke-width="1.8" points="563.64,-755 555.41,-760.67 554.27,-759.02 562.51,-753.35 563.64,-755"/>
<polyline fill="none" stroke="#f77f00" stroke-width="1.8" points="560.09,-758.66 557.26,-754.54"/>
<text text-anchor="middle" x="442.25" y="-593.95" font-family="Helvetica Neue" font-size="14.00"> </text>
<text text-anchor="middle" x="461.64" y="-649.19" font-family="Helvetica Neue" font-size="14.00">BelongsTo</text>
<text text-anchor="middle" x="461.64" y="-631.94" font-family="Helvetica Neue" font-size="14.00">user</text>
</g>
<!-- service_asset&#45;&gt;modulesassetmodelsasset -->
<g id="edge12" class="edge">
<title>service_asset:asset_id&#45;&gt;modulesassetmodelsasset:id</title>
<path fill="none" stroke="#003049" stroke-width="1.8" d="M267.78,-227.05C234.29,-225.04 196,-222.75 196,-222.75 196,-222.75 191.5,-222.75 191.5,-222.75 191.5,-222.75 155.75,-237.58 121.63,-251.74"/>
<polygon fill="#003049" stroke="#003049" stroke-width="1.8" points="120.59,-248.38 112.7,-255.45 123.28,-254.85 120.59,-248.38"/>
<text text-anchor="middle" x="193.75" y="-226.95" font-family="Helvetica Neue" font-size="14.00"> </text>
<text text-anchor="middle" x="241.01" y="-209.45" font-family="Helvetica Neue" font-size="14.00">BelongsToMany</text>
<text text-anchor="middle" x="241.01" y="-192.2" font-family="Helvetica Neue" font-size="14.00">serviceAssets</text>
</g>
<!-- moduleseventmodelsservice -->
<g id="node4" class="node">
<title>moduleseventmodelsservice</title>
<polygon fill="none" stroke="black" points="645.75,-136 545.75,-136 545.75,-36 645.75,-36 645.75,-136"/>
<polygon fill="#d3d3d3" stroke="none" points="545.75,-96.75 545.75,-136 645.75,-136 645.75,-96.75 545.75,-96.75"/>
<polygon fill="none" stroke="black" points="545.75,-96.75 545.75,-136 645.75,-136 645.75,-96.75 545.75,-96.75"/>
<text text-anchor="start" x="573.25" y="-111.7" font-family="Helvetica Neue" font-size="14.00" fill="#333333">Service</text>
</g>
<!-- service_asset&#45;&gt;moduleseventmodelsservice -->
<g id="edge3" class="edge">
<title>service_asset:service_id&#45;&gt;moduleseventmodelsservice:id</title>
<path fill="none" stroke="#003049" stroke-width="1.8" d="M368,-180C368,-180 466.38,-139.22 533.54,-111.38"/>
<polygon fill="#003049" stroke="#003049" stroke-width="1.8" points="534.85,-114.62 542.75,-107.56 532.17,-108.15 534.85,-114.62"/>
<text text-anchor="middle" x="442.25" y="-153.95" font-family="Helvetica Neue" font-size="14.00"> </text>
<text text-anchor="middle" x="499.89" y="-166.89" font-family="Helvetica Neue" font-size="14.00">BelongsToMany</text>
<text text-anchor="middle" x="499.89" y="-149.64" font-family="Helvetica Neue" font-size="14.00">services</text>
</g>
<!-- moduleseventmodelsservice&#45;&gt;service_asset -->
<g id="edge11" class="edge">
<title>moduleseventmodelsservice:id&#45;&gt;service_asset:service_id</title>
<path fill="none" stroke="#003049" stroke-width="1.8" d="M545.36,-95.18C500.07,-103.59 440,-114.75 440,-114.75 440,-114.75 396.93,-153.78 377.41,-171.47"/>
<polygon fill="#003049" stroke="#003049" stroke-width="1.8" points="375.08,-168.86 370.02,-178.17 379.78,-174.05 375.08,-168.86"/>
<text text-anchor="middle" x="442.25" y="-118.95" font-family="Helvetica Neue" font-size="14.00"> </text>
<text text-anchor="middle" x="402.03" y="-133.88" font-family="Helvetica Neue" font-size="14.00">BelongsToMany</text>
<text text-anchor="middle" x="402.03" y="-116.63" font-family="Helvetica Neue" font-size="14.00">serviceAssets</text>
</g>
<!-- modulesassetmodelshall&#45;&gt;modulesassetmodelsasset -->
<g id="edge5" class="edge">
<title>modulesassetmodelshall:asset_id&#45;&gt;modulesassetmodelsasset:id</title>
<path fill="none" stroke="#f77f00" stroke-width="1.8" d="M258.59,-85.25C225.84,-105.02 191.5,-125.75 191.5,-125.75 191.5,-125.75 144.98,-179.57 107.43,-223"/>
<polygon fill="#f77f00" stroke="#f77f00" stroke-width="1.8" points="258.68,-85.2 269.57,-83.88 263.48,-82.3 266.73,-80.34 266.73,-80.34 266.73,-80.34 263.48,-82.3 264.92,-76.18 258.68,-85.2"/>
<polygon fill="#f77f00" stroke="#f77f00" stroke-width="1.8" points="108.72,-229.15 101.16,-222.61 102.47,-221.1 110.03,-227.64 108.72,-229.15"/>
<polyline fill="none" stroke="#f77f00" stroke-width="1.8" points="104.29,-226.64 107.56,-222.85"/>
<text text-anchor="middle" x="193.75" y="-129.95" font-family="Helvetica Neue" font-size="14.00"> </text>
<text text-anchor="middle" x="142.84" y="-131.43" font-family="Helvetica Neue" font-size="14.00">BelongsTo</text>
<text text-anchor="middle" x="142.84" y="-114.18" font-family="Helvetica Neue" font-size="14.00">asset</text>
</g>
<!-- moduleschatmodelschat -->
<g id="node6" class="node">
<title>moduleschatmodelschat</title>
<polygon fill="none" stroke="black" points="923.5,-924 823.5,-924 823.5,-824 923.5,-824 923.5,-924"/>
<polygon fill="#d3d3d3" stroke="none" points="823.5,-884.75 823.5,-924 923.5,-924 923.5,-884.75 823.5,-884.75"/>
<polygon fill="none" stroke="black" points="823.5,-884.75 823.5,-924 923.5,-924 923.5,-884.75 823.5,-884.75"/>
<text text-anchor="start" x="859.25" y="-899.7" font-family="Helvetica Neue" font-size="14.00" fill="#333333">Chat</text>
</g>
<!-- moduleschatmodelschat&#45;&gt;modulesusermodelsuser -->
<g id="edge6" class="edge">
<title>moduleschatmodelschat:sender_id&#45;&gt;modulesusermodelsuser:id</title>
<path fill="none" stroke="#f77f00" stroke-width="1.8" d="M913.68,-822.61C875.8,-817.74 751.5,-801.75 751.5,-801.75 751.5,-801.75 747,-801.75 747,-801.75 747,-801.75 693.94,-804.31 650.88,-806.39"/>
<polygon fill="#f77f00" stroke="#f77f00" stroke-width="1.8" points="913.98,-822.65 923.33,-828.39 919.54,-823.36 923.31,-823.85 923.31,-823.85 923.31,-823.85 919.54,-823.36 924.48,-819.46 913.98,-822.65"/>
<polygon fill="#f77f00" stroke="#f77f00" stroke-width="1.8" points="647.19,-811.57 646.71,-801.58 648.7,-801.49 649.19,-811.48 647.19,-811.57"/>
<polyline fill="none" stroke="#f77f00" stroke-width="1.8" points="645.95,-806.63 650.94,-806.38"/>
<text text-anchor="middle" x="749.25" y="-804.95" font-family="Helvetica Neue" font-size="14.00"> </text>
<text text-anchor="middle" x="814.88" y="-792.45" font-family="Helvetica Neue" font-size="14.00">BelongsTo</text>
<text text-anchor="middle" x="814.88" y="-775.2" font-family="Helvetica Neue" font-size="14.00">sender</text>
</g>
<!-- moduleschatmodelschat&#45;&gt;modulesusermodelsuser -->
<g id="edge7" class="edge">
<title>moduleschatmodelschat:reciever_id&#45;&gt;modulesusermodelsuser:id</title>
<path fill="none" stroke="#f77f00" stroke-width="1.8" d="M813.37,-896.97C782.67,-908.89 751.5,-921 751.5,-921 751.5,-921 747,-921 747,-921 747,-921 693.07,-880.8 649.83,-848.57"/>
<polygon fill="#f77f00" stroke="#f77f00" stroke-width="1.8" points="813.4,-896.96 824.35,-897.53 818.62,-894.93 822.16,-893.55 822.16,-893.55 822.16,-893.55 818.62,-894.93 821.09,-889.14 813.4,-896.96"/>
<polygon fill="#f77f00" stroke="#f77f00" stroke-width="1.8" points="643.76,-850.28 649.74,-842.26 651.34,-843.46 645.36,-851.47 643.76,-850.28"/>
<polyline fill="none" stroke="#f77f00" stroke-width="1.8" points="645.95,-845.67 649.96,-848.66"/>
<text text-anchor="middle" x="749.25" y="-924.95" font-family="Helvetica Neue" font-size="14.00"> </text>
<text text-anchor="middle" x="694.58" y="-892.66" font-family="Helvetica Neue" font-size="14.00">BelongsTo</text>
<text text-anchor="middle" x="694.58" y="-875.41" font-family="Helvetica Neue" font-size="14.00">reciever</text>
</g>
<!-- modulesusermodelsuser&#45;&gt;modulesassetmodelsasset -->
<g id="edge28" class="edge">
<title>modulesusermodelsuser:id&#45;&gt;modulesassetmodelsasset:user_id</title>
<path fill="none" stroke="#fcbf49" stroke-width="1.8" d="M545.48,-768.29C454.2,-692.86 268,-539 268,-539 268,-539 225.54,-485.32 179.05,-426.56"/>
<polygon fill="#fcbf49" stroke="#fcbf49" stroke-width="1.8" points="107.04,-335.52 104.37,-324.89 103.57,-331.13 101.21,-328.15 101.21,-328.15 101.21,-328.15 103.57,-331.13 97.31,-330.47 107.04,-335.52"/>
<text text-anchor="middle" x="318" y="-624.95" font-family="Helvetica Neue" font-size="14.00"> </text>
<text text-anchor="middle" x="322.98" y="-594.68" font-family="Helvetica Neue" font-size="14.00">HasMany</text>
<text text-anchor="middle" x="322.98" y="-577.43" font-family="Helvetica Neue" font-size="14.00">assets</text>
</g>
<!-- modulesusermodelsuser&#45;&gt;moduleschatmodelschat -->
<g id="edge31" class="edge">
<title>modulesusermodelsuser:id&#45;&gt;moduleschatmodelschat:sender_id</title>
<path fill="none" stroke="#fcbf49" stroke-width="1.8" d="M645.95,-814.89C689.77,-820.14 747,-827 747,-827 747,-827 751.5,-827 751.5,-827 751.5,-827 823.5,-824 823.5,-824 823.5,-824 866.74,-824 896.63,-824"/>
<polygon fill="#fcbf49" stroke="#fcbf49" stroke-width="1.8" points="913.9,-824 923.9,-828.5 919.5,-824 923.3,-824 923.3,-824 923.3,-824 919.5,-824 923.9,-819.5 913.9,-824"/>
<text text-anchor="middle" x="749.25" y="-830.95" font-family="Helvetica Neue" font-size="14.00"> </text>
<text text-anchor="middle" x="734.94" y="-812.89" font-family="Helvetica Neue" font-size="14.00">HasMany</text>
<text text-anchor="middle" x="734.94" y="-795.64" font-family="Helvetica Neue" font-size="14.00">chatSender</text>
</g>
<!-- modulesusermodelsuser&#45;&gt;moduleschatmodelschat -->
<g id="edge32" class="edge">
<title>modulesusermodelsuser:id&#45;&gt;moduleschatmodelschat:reciever_id</title>
<path fill="none" stroke="#fcbf49" stroke-width="1.8" d="M645.95,-857.13C689.77,-900 747,-956 747,-956 747,-956 751.5,-956 751.5,-956 751.5,-956 780.81,-936.14 810.58,-915.96"/>
<polygon fill="#fcbf49" stroke="#fcbf49" stroke-width="1.8" points="814.51,-913.3 825.31,-911.42 819.15,-910.16 822.29,-908.03 822.29,-908.03 822.29,-908.03 819.15,-910.16 820.26,-903.97 814.51,-913.3"/>
<text text-anchor="middle" x="749.25" y="-959.95" font-family="Helvetica Neue" font-size="14.00"> </text>
<text text-anchor="middle" x="763.71" y="-945.67" font-family="Helvetica Neue" font-size="14.00">HasMany</text>
<text text-anchor="middle" x="763.71" y="-928.42" font-family="Helvetica Neue" font-size="14.00">chatReciever</text>
</g>
<!-- modulescontractsmodelscontract -->
<g id="node8" class="node">
<title>modulescontractsmodelscontract</title>
<polygon fill="none" stroke="black" points="923.5,-752 823.5,-752 823.5,-652 923.5,-652 923.5,-752"/>
<polygon fill="#d3d3d3" stroke="none" points="823.5,-712.75 823.5,-752 923.5,-752 923.5,-712.75 823.5,-712.75"/>
<polygon fill="none" stroke="black" points="823.5,-712.75 823.5,-752 923.5,-752 923.5,-712.75 823.5,-712.75"/>
<text text-anchor="start" x="847.25" y="-727.7" font-family="Helvetica Neue" font-size="14.00" fill="#333333">Contract</text>
</g>
<!-- modulesusermodelsuser&#45;&gt;modulescontractsmodelscontract -->
<g id="edge25" class="edge">
<title>modulesusermodelsuser:id&#45;&gt;modulescontractsmodelscontract:user_id</title>
<path fill="none" stroke="#fcbf49" stroke-width="1.8" d="M646.05,-789.87C691,-772.43 757.75,-746.53 807.14,-727.36"/>
<polygon fill="#fcbf49" stroke="#fcbf49" stroke-width="1.8" points="813.28,-724.98 824.23,-725.56 818.5,-722.95 822.04,-721.58 822.04,-721.58 822.04,-721.58 818.5,-722.95 820.97,-717.17 813.28,-724.98"/>
<text text-anchor="middle" x="749.25" y="-752.95" font-family="Helvetica Neue" font-size="14.00"> </text>
<text text-anchor="middle" x="698.09" y="-745.32" font-family="Helvetica Neue" font-size="14.00">HasMany</text>
<text text-anchor="middle" x="698.09" y="-728.07" font-family="Helvetica Neue" font-size="14.00">contracts</text>
</g>
<!-- user_notifications -->
<g id="node13" class="node">
<title>user_notifications</title>
<polygon fill="none" stroke="black" points="923.5,-1452 823.5,-1452 823.5,-1352 923.5,-1352 923.5,-1452"/>
<polygon fill="#d3d3d3" stroke="none" points="823.5,-1412.75 823.5,-1452 923.5,-1452 923.5,-1412.75 823.5,-1412.75"/>
<polygon fill="none" stroke="black" points="823.5,-1412.75 823.5,-1452 923.5,-1452 923.5,-1412.75 823.5,-1412.75"/>
<text text-anchor="start" x="858.88" y="-1427.7" font-family="Helvetica Neue" font-size="14.00" fill="#333333">Pivot</text>
</g>
<!-- modulesusermodelsuser&#45;&gt;user_notifications -->
<g id="edge26" class="edge">
<title>modulesusermodelsuser:id&#45;&gt;user_notifications:user_id</title>
<path fill="none" stroke="#003049" stroke-width="1.8" d="M642.27,-859.03C659.48,-877.95 675,-895 675,-895 675,-895 747,-1305 747,-1305 747,-1305 780.75,-1331.09 813.25,-1356.21"/>
<polygon fill="#003049" stroke="#003049" stroke-width="1.8" points="811.05,-1358.93 821.1,-1362.28 815.33,-1353.39 811.05,-1358.93"/>
<text text-anchor="middle" x="749.25" y="-1310.95" font-family="Helvetica Neue" font-size="14.00"> </text>
<text text-anchor="middle" x="664.91" y="-1103.99" font-family="Helvetica Neue" font-size="14.00">BelongsToMany</text>
<text text-anchor="middle" x="664.91" y="-1086.74" font-family="Helvetica Neue" font-size="14.00">notifications</text>
</g>
<!-- modulesreservationmodelspubliceventreservation -->
<g id="node14" class="node">
<title>modulesreservationmodelspubliceventreservation</title>
<polygon fill="none" stroke="black" points="1238.75,-762 1072,-762 1072,-662 1238.75,-662 1238.75,-762"/>
<polygon fill="#d3d3d3" stroke="none" points="1072,-722.75 1072,-762 1238.75,-762 1238.75,-722.75 1072,-722.75"/>
<polygon fill="none" stroke="black" points="1072,-722.75 1072,-762 1238.75,-762 1238.75,-722.75 1072,-722.75"/>
<text text-anchor="start" x="1083" y="-737.7" font-family="Helvetica Neue" font-size="14.00" fill="#333333">PublicEventReservation</text>
</g>
<!-- modulesusermodelsuser&#45;&gt;modulesreservationmodelspubliceventreservation -->
<g id="edge30" class="edge">
<title>modulesusermodelsuser:id&#45;&gt;modulesreservationmodelspubliceventreservation:user_id</title>
<path fill="none" stroke="#fcbf49" stroke-width="1.8" d="M642.27,-859.03C659.48,-877.95 675,-895 675,-895 675,-895 747,-1046 747,-1046 747,-1046 751.5,-1046 751.5,-1046 751.5,-1046 923.5,-1012 923.5,-1012 923.5,-1012 1039.61,-861.13 1107.14,-773.37"/>
<polygon fill="#fcbf49" stroke="#fcbf49" stroke-width="1.8" points="1109.27,-770.62 1118.93,-765.43 1112.68,-766.18 1115,-763.17 1115,-763.17 1115,-763.17 1112.68,-766.18 1111.8,-759.95 1109.27,-770.62"/>
<text text-anchor="middle" x="873.5" y="-1034.95" font-family="Helvetica Neue" font-size="14.00"> </text>
<text text-anchor="middle" x="952.83" y="-1007.88" font-family="Helvetica Neue" font-size="14.00">HasMany</text>
<text text-anchor="middle" x="952.83" y="-990.63" font-family="Helvetica Neue" font-size="14.00">publicEventReservations</text>
</g>
<!-- modulesreservationmodelsreservation -->
<g id="node16" class="node">
<title>modulesreservationmodelsreservation</title>
<polygon fill="none" stroke="black" points="923.5,-262 823.5,-262 823.5,-162 923.5,-162 923.5,-262"/>
<polygon fill="#d3d3d3" stroke="none" points="823.5,-222.75 823.5,-262 923.5,-262 923.5,-222.75 823.5,-222.75"/>
<polygon fill="none" stroke="black" points="823.5,-222.75 823.5,-262 923.5,-262 923.5,-222.75 823.5,-222.75"/>
<text text-anchor="start" x="837.12" y="-237.7" font-family="Helvetica Neue" font-size="14.00" fill="#333333">Reservation</text>
</g>
<!-- modulesusermodelsuser&#45;&gt;modulesreservationmodelsreservation -->
<g id="edge33" class="edge">
<title>modulesusermodelsuser:id&#45;&gt;modulesreservationmodelsreservation:confirmed_guest_id</title>
<path fill="none" stroke="#fcbf49" stroke-width="1.8" d="M620.02,-758.61C670.25,-649.88 788.69,-393.45 843.61,-274.55"/>
<polygon fill="#fcbf49" stroke="#fcbf49" stroke-width="1.8" points="844.75,-272.09 853.03,-264.89 847.1,-267 848.69,-263.55 848.69,-263.55 848.69,-263.55 847.1,-267 844.85,-261.12 844.75,-272.09"/>
<text text-anchor="middle" x="749.25" y="-477.95" font-family="Helvetica Neue" font-size="14.00"> </text>
<text text-anchor="middle" x="694.31" y="-503.28" font-family="Helvetica Neue" font-size="14.00">HasMany</text>
<text text-anchor="middle" x="694.31" y="-486.03" font-family="Helvetica Neue" font-size="14.00">reservations</text>
</g>
<!-- modulesusermodelsotp -->
<g id="node17" class="node">
<title>modulesusermodelsotp</title>
<polygon fill="none" stroke="black" points="923.5,-580 823.5,-580 823.5,-480 923.5,-480 923.5,-580"/>
<polygon fill="#d3d3d3" stroke="none" points="823.5,-540.75 823.5,-580 923.5,-580 923.5,-540.75 823.5,-540.75"/>
<polygon fill="none" stroke="black" points="823.5,-540.75 823.5,-580 923.5,-580 923.5,-540.75 823.5,-540.75"/>
<text text-anchor="start" x="860.75" y="-555.7" font-family="Helvetica Neue" font-size="14.00" fill="#333333">OTP</text>
</g>
<!-- modulesusermodelsuser&#45;&gt;modulesusermodelsotp -->
<g id="edge29" class="edge">
<title>modulesusermodelsuser:id&#45;&gt;modulesusermodelsotp:user_id</title>
<path fill="none" stroke="#fcbf49" stroke-width="1.8" d="M625.01,-758.54C668.53,-680.84 747,-540.75 747,-540.75 747,-540.75 765.99,-539.12 789.19,-537.14"/>
<polygon fill="#fcbf49" stroke="#fcbf49" stroke-width="1.8" points="812.7,-535.12 823.04,-538.75 818.28,-534.64 822.06,-534.32 822.06,-534.32 822.06,-534.32 818.28,-534.64 822.28,-529.79 812.7,-535.12"/>
<text text-anchor="middle" x="749.25" y="-543.95" font-family="Helvetica Neue" font-size="14.00"> </text>
<text text-anchor="middle" x="667.85" y="-617.87" font-family="Helvetica Neue" font-size="14.00">HasMany</text>
<text text-anchor="middle" x="667.85" y="-600.62" font-family="Helvetica Neue" font-size="14.00">otps</text>
</g>
<!-- modulescontractsmodelscontract&#45;&gt;modulesusermodelsuser -->
<g id="edge8" class="edge">
<title>modulescontractsmodelscontract:user_id&#45;&gt;modulesusermodelsuser:id</title>
<path fill="none" stroke="#f77f00" stroke-width="1.8" d="M814.57,-659.75C783.49,-637.08 751.5,-613.75 751.5,-613.75 751.5,-613.75 747,-613.75 747,-613.75 747,-613.75 682.81,-697.16 638.34,-754.95"/>
<polygon fill="#f77f00" stroke="#f77f00" stroke-width="1.8" points="814.72,-659.86 820.15,-669.39 819.24,-663.16 822.31,-665.4 822.31,-665.4 822.31,-665.4 819.24,-663.16 825.45,-662.11 814.72,-659.86"/>
<polygon fill="#f77f00" stroke="#f77f00" stroke-width="1.8" points="640.02,-760.98 632.09,-754.88 633.31,-753.29 641.24,-759.39 640.02,-760.98"/>
<polyline fill="none" stroke="#f77f00" stroke-width="1.8" points="635.44,-758.72 638.49,-754.76"/>
<text text-anchor="middle" x="749.25" y="-616.95" font-family="Helvetica Neue" font-size="14.00"> </text>
<text text-anchor="middle" x="685.6" y="-672.83" font-family="Helvetica Neue" font-size="14.00">BelongsTo</text>
<text text-anchor="middle" x="685.6" y="-655.58" font-family="Helvetica Neue" font-size="14.00">user</text>
</g>
<!-- modulesdiscountsmodelsdiscount -->
<g id="node9" class="node">
<title>modulesdiscountsmodelsdiscount</title>
<polygon fill="none" stroke="black" points="109.75,-1031 9.75,-1031 9.75,-931 109.75,-931 109.75,-1031"/>
<polygon fill="#d3d3d3" stroke="none" points="9.75,-991.75 9.75,-1031 109.75,-1031 109.75,-991.75 9.75,-991.75"/>
<polygon fill="none" stroke="black" points="9.75,-991.75 9.75,-1031 109.75,-1031 109.75,-991.75 9.75,-991.75"/>
<text text-anchor="start" x="32.75" y="-1006.7" font-family="Helvetica Neue" font-size="14.00" fill="#333333">Discount</text>
</g>
<!-- moduleseventmodelsserviceasset -->
<g id="node10" class="node">
<title>moduleseventmodelsserviceasset</title>
<polygon fill="none" stroke="black" points="368,-1031 268,-1031 268,-931 368,-931 368,-1031"/>
<polygon fill="#d3d3d3" stroke="none" points="268,-991.75 268,-1031 368,-1031 368,-991.75 268,-991.75"/>
<polygon fill="none" stroke="black" points="268,-991.75 268,-1031 368,-1031 368,-991.75 268,-991.75"/>
<text text-anchor="start" x="279.38" y="-1006.7" font-family="Helvetica Neue" font-size="14.00" fill="#333333">ServiceAsset</text>
</g>
<!-- modulesdiscountsmodelsdiscount&#45;&gt;moduleseventmodelsserviceasset -->
<g id="edge9" class="edge">
<title>modulesdiscountsmodelsdiscount:event_id&#45;&gt;moduleseventmodelsserviceasset:id</title>
<path fill="none" stroke="#f77f00" stroke-width="1.8" d="M125.47,-981C167.93,-981 222.8,-981 262.93,-981"/>
<polygon fill="#f77f00" stroke="#f77f00" stroke-width="1.8" points="120.76,-981 110.76,-976.5 115.16,-981 111.36,-981 111.36,-981 111.36,-981 115.16,-981 110.76,-985.5 120.76,-981"/>
<polygon fill="#f77f00" stroke="#f77f00" stroke-width="1.8" points="266.74,-976 266.74,-986 264.74,-986 264.74,-976 266.74,-976"/>
<polyline fill="none" stroke="#f77f00" stroke-width="1.8" points="267.74,-981 262.74,-981"/>
<text text-anchor="middle" x="193.75" y="-984.95" font-family="Helvetica Neue" font-size="14.00"> </text>
<text text-anchor="middle" x="156.7" y="-967.7" font-family="Helvetica Neue" font-size="14.00">BelongsTo</text>
<text text-anchor="middle" x="156.7" y="-950.45" font-family="Helvetica Neue" font-size="14.00">serviceAsset</text>
</g>
<!-- moduleseventmodelsserviceasset&#45;&gt;modulesdiscountsmodelsdiscount -->
<g id="edge14" class="edge">
<title>moduleseventmodelsserviceasset:id&#45;&gt;modulesdiscountsmodelsdiscount:event_id</title>
<path fill="none" stroke="#fcbf49" stroke-width="1.8" d="M267.78,-966.66C234.29,-956.9 196,-945.75 196,-945.75 196,-945.75 195.98,-945.75 195.93,-945.76"/>
<polygon fill="#fcbf49" stroke="#fcbf49" stroke-width="1.8" points="120.45,-965.05 109.65,-963.16 115.03,-966.44 111.35,-967.38 111.35,-967.38 111.35,-967.38 115.03,-966.44 111.88,-971.88 120.45,-965.05"/>
<text text-anchor="middle" x="193.75" y="-948.95" font-family="Helvetica Neue" font-size="14.00"> </text>
<text text-anchor="middle" x="202.61" y="-942.9" font-family="Helvetica Neue" font-size="14.00">HasMany</text>
<text text-anchor="middle" x="202.61" y="-925.65" font-family="Helvetica Neue" font-size="14.00">discounts</text>
</g>
<!-- moduleseventmodelspubliceventproportion -->
<g id="node11" class="node">
<title>moduleseventmodelspubliceventproportion</title>
<polygon fill="none" stroke="black" points="675,-1031 516.5,-1031 516.5,-931 675,-931 675,-1031"/>
<polygon fill="#d3d3d3" stroke="none" points="516.5,-991.75 516.5,-1031 675,-1031 675,-991.75 516.5,-991.75"/>
<polygon fill="none" stroke="black" points="516.5,-991.75 516.5,-1031 675,-1031 675,-991.75 516.5,-991.75"/>
<text text-anchor="start" x="527.5" y="-1006.7" font-family="Helvetica Neue" font-size="14.00" fill="#333333">PublicEventProportion</text>
</g>
<!-- moduleseventmodelsserviceasset&#45;&gt;moduleseventmodelspubliceventproportion -->
<g id="edge13" class="edge">
<title>moduleseventmodelsserviceasset:id&#45;&gt;moduleseventmodelspubliceventproportion:event_id</title>
<path fill="none" stroke="#d62828" stroke-width="1.8" d="M368.3,-981C407.99,-981 464.66,-981 511.38,-981"/>
<polygon fill="#d62828" stroke="#d62828" stroke-width="1.8" points="515.15,-976 515.15,-986 513.15,-986 513.15,-976 515.15,-976"/>
<polyline fill="none" stroke="#d62828" stroke-width="1.8" points="516.15,-981 511.15,-981"/>
<text text-anchor="middle" x="442.25" y="-984.95" font-family="Helvetica Neue" font-size="14.00"> </text>
<text text-anchor="middle" x="407.21" y="-967.7" font-family="Helvetica Neue" font-size="14.00">HasOne</text>
<text text-anchor="middle" x="407.21" y="-950.45" font-family="Helvetica Neue" font-size="14.00">proportion</text>
</g>
<!-- moduleseventmodelspubliceventproportion&#45;&gt;moduleseventmodelsserviceasset -->
<g id="edge10" class="edge">
<title>moduleseventmodelspubliceventproportion:event_id&#45;&gt;moduleseventmodelsserviceasset:id</title>
<path fill="none" stroke="#f77f00" stroke-width="1.8" d="M505.94,-948.93C473.45,-937.2 444.5,-926.75 444.5,-926.75 444.5,-926.75 440,-926.75 440,-926.75 440,-926.75 404.93,-942.47 372.56,-956.99"/>
<polygon fill="#f77f00" stroke="#f77f00" stroke-width="1.8" points="506.13,-949 514.01,-956.63 511.4,-950.91 514.97,-952.19 514.97,-952.19 514.97,-952.19 511.4,-950.91 517.07,-948.17 506.13,-949"/>
<polygon fill="#f77f00" stroke="#f77f00" stroke-width="1.8" points="371.17,-963.09 367.08,-953.96 368.91,-953.14 373,-962.27 371.17,-963.09"/>
<polyline fill="none" stroke="#f77f00" stroke-width="1.8" points="368.22,-958.93 372.78,-956.89"/>
<text text-anchor="middle" x="442.25" y="-929.95" font-family="Helvetica Neue" font-size="14.00"> </text>
<text text-anchor="middle" x="400.63" y="-914.29" font-family="Helvetica Neue" font-size="14.00">BelongsTo</text>
<text text-anchor="middle" x="400.63" y="-897.04" font-family="Helvetica Neue" font-size="14.00">serviceAsset</text>
</g>
<!-- modulesnotificationmodelsnotification -->
<g id="node12" class="node">
<title>modulesnotificationmodelsnotification</title>
<polygon fill="none" stroke="black" points="1205.38,-1452 1105.38,-1452 1105.38,-1352 1205.38,-1352 1205.38,-1452"/>
<polygon fill="#d3d3d3" stroke="none" points="1105.38,-1412.75 1105.38,-1452 1205.38,-1452 1205.38,-1412.75 1105.38,-1412.75"/>
<polygon fill="none" stroke="black" points="1105.38,-1412.75 1105.38,-1452 1205.38,-1452 1205.38,-1412.75 1105.38,-1412.75"/>
<text text-anchor="start" x="1120.5" y="-1427.7" font-family="Helvetica Neue" font-size="14.00" fill="#333333">Notification</text>
</g>
<!-- modulesnotificationmodelsnotification&#45;&gt;user_notifications -->
<g id="edge17" class="edge">
<title>modulesnotificationmodelsnotification:id&#45;&gt;user_notifications:notification_id</title>
<path fill="none" stroke="#003049" stroke-width="1.8" d="M1105.01,-1402C1058,-1402 987.08,-1402 936.33,-1402"/>
<polygon fill="#003049" stroke="#003049" stroke-width="1.8" points="936.62,-1398.5 926.62,-1402 936.62,-1405.5 936.62,-1398.5"/>
<text text-anchor="middle" x="997.75" y="-1405.95" font-family="Helvetica Neue" font-size="14.00"> </text>
<text text-anchor="middle" x="971.55" y="-1423.2" font-family="Helvetica Neue" font-size="14.00">BelongsToMany</text>
<text text-anchor="middle" x="971.55" y="-1405.95" font-family="Helvetica Neue" font-size="14.00">users</text>
</g>
<!-- user_notifications&#45;&gt;modulesusermodelsuser -->
<g id="edge18" class="edge">
<title>user_notifications:user_id&#45;&gt;modulesusermodelsuser:id</title>
<path fill="none" stroke="#003049" stroke-width="1.8" d="M825.77,-1351.73C790.09,-1313.35 747,-1267 747,-1267 747,-1267 675,-895 675,-895 675,-895 664.16,-883.08 650.54,-868.12"/>
<polygon fill="#003049" stroke="#003049" stroke-width="1.8" points="653.42,-866.08 644.1,-861.04 648.24,-870.79 653.42,-866.08"/>
<text text-anchor="middle" x="749.25" y="-1273.95" font-family="Helvetica Neue" font-size="14.00"> </text>
<text text-anchor="middle" x="767.66" y="-1106.65" font-family="Helvetica Neue" font-size="14.00">BelongsToMany</text>
<text text-anchor="middle" x="767.66" y="-1089.4" font-family="Helvetica Neue" font-size="14.00">users</text>
</g>
<!-- user_notifications&#45;&gt;modulesnotificationmodelsnotification -->
<g id="edge27" class="edge">
<title>user_notifications:notification_id&#45;&gt;modulesnotificationmodelsnotification:id</title>
<path fill="none" stroke="#003049" stroke-width="1.8" d="M923.72,-1387.66C957.21,-1377.9 995.5,-1366.75 995.5,-1366.75 995.5,-1366.75 1000,-1366.75 1000,-1366.75 1000,-1366.75 1049.86,-1378.13 1092.9,-1387.96"/>
<polygon fill="#003049" stroke="#003049" stroke-width="1.8" points="1091.92,-1391.33 1102.45,-1390.14 1093.48,-1384.5 1091.92,-1391.33"/>
<text text-anchor="middle" x="997.75" y="-1369.95" font-family="Helvetica Neue" font-size="14.00"> </text>
<text text-anchor="middle" x="1056.94" y="-1355.23" font-family="Helvetica Neue" font-size="14.00">BelongsToMany</text>
<text text-anchor="middle" x="1056.94" y="-1337.98" font-family="Helvetica Neue" font-size="14.00">notifications</text>
</g>
<!-- modulesreservationmodelspubliceventreservation&#45;&gt;modulesfavoritemodelsfavorite -->
<g id="edge21" class="edge">
<title>modulesreservationmodelspubliceventreservation:id&#45;&gt;modulesfavoritemodelsfavorite:favoritable_id</title>
<path fill="none" stroke="#003049" stroke-width="1.8" d="M1071.55,-719.98C1047.89,-722.26 1024.84,-724.49 1011.22,-725.8"/>
<polygon fill="#003049" stroke="#003049" stroke-width="1.8" points="1011.08,-722.3 1001.46,-726.74 1011.75,-729.26 1011.08,-722.3"/>
<path fill="none" stroke="#003049" stroke-width="1.8" d="M996.75,-727C996.75,-727 923.5,-444 923.5,-444 923.5,-444 512.84,-426.34 368.47,-420.13"/>
<text text-anchor="middle" x="749.25" y="-439.95" font-family="Helvetica Neue" font-size="14.00"> </text>
<text text-anchor="middle" x="859.41" y="-426.35" font-family="Helvetica Neue" font-size="14.00">MorphMany</text>
<text text-anchor="middle" x="859.41" y="-409.1" font-family="Helvetica Neue" font-size="14.00">favorites</text>
</g>
<!-- modulesreservationmodelspubliceventreservation&#45;&gt;modulesusermodelsuser -->
<g id="edge20" class="edge">
<title>modulesreservationmodelspubliceventreservation:user_id&#45;&gt;modulesusermodelsuser:id</title>
<path fill="none" stroke="#f77f00" stroke-width="1.8" d="M992.5,-740.53C976.86,-790.26 923.5,-960 923.5,-960 923.5,-960 751.5,-991 751.5,-991 751.5,-991 747,-991 747,-991 747,-991 675,-895 675,-895 675,-895 659.48,-877.95 642.27,-859.03"/>
<polygon fill="#f77f00" stroke="#f77f00" stroke-width="1.8" points="993.57,-737.11 1000.86,-728.92 995.25,-731.77 996.39,-728.15 996.39,-728.15 996.39,-728.15 995.25,-731.77 992.28,-726.22 993.57,-737.11"/>
<text text-anchor="middle" x="873.5" y="-980.95" font-family="Helvetica Neue" font-size="14.00"> </text>
<text text-anchor="middle" x="897.76" y="-957.15" font-family="Helvetica Neue" font-size="14.00">BelongsTo</text>
<text text-anchor="middle" x="897.76" y="-939.9" font-family="Helvetica Neue" font-size="14.00">user</text>
</g>
<!-- modulesreservationmodelspublicevent -->
<g id="node15" class="node">
<title>modulesreservationmodelspublicevent</title>
<polygon fill="none" stroke="black" points="1487.25,-405 1387.25,-405 1387.25,-305 1487.25,-305 1487.25,-405"/>
<polygon fill="#d3d3d3" stroke="none" points="1387.25,-365.75 1387.25,-405 1487.25,-405 1487.25,-365.75 1387.25,-365.75"/>
<polygon fill="none" stroke="black" points="1387.25,-365.75 1387.25,-405 1487.25,-405 1487.25,-365.75 1387.25,-365.75"/>
<text text-anchor="start" x="1401.25" y="-380.7" font-family="Helvetica Neue" font-size="14.00" fill="#333333">PublicEvent</text>
</g>
<!-- modulesreservationmodelspubliceventreservation&#45;&gt;modulesreservationmodelspublicevent -->
<g id="edge19" class="edge">
<title>modulesreservationmodelspubliceventreservation:event_id&#45;&gt;modulesreservationmodelspublicevent:id</title>
<path fill="none" stroke="#f77f00" stroke-width="1.8" d="M1205.31,-649.58C1258.63,-581.56 1343.08,-473.84 1393.73,-409.23"/>
<polygon fill="#f77f00" stroke="#f77f00" stroke-width="1.8" points="1202.42,-653.26 1192.71,-658.36 1198.97,-657.67 1196.62,-660.66 1196.62,-660.66 1196.62,-660.66 1198.97,-657.67 1199.79,-663.91 1202.42,-653.26"/>
<polygon fill="#f77f00" stroke="#f77f00" stroke-width="1.8" points="1392.17,-403.13 1400.04,-409.3 1398.8,-410.87 1390.93,-404.7 1392.17,-403.13"/>
<polyline fill="none" stroke="#f77f00" stroke-width="1.8" points="1396.72,-405.42 1393.63,-409.36"/>
<text text-anchor="middle" x="1313" y="-515.95" font-family="Helvetica Neue" font-size="14.00"> </text>
<text text-anchor="middle" x="1263.15" y="-516.11" font-family="Helvetica Neue" font-size="14.00">BelongsTo</text>
<text text-anchor="middle" x="1263.15" y="-498.86" font-family="Helvetica Neue" font-size="14.00">publicEvent</text>
</g>
<!-- modulesreservationmodelsreservation&#45;&gt;modulesreservationmodelspubliceventreservation -->
<g id="edge23" class="edge">
<title>modulesreservationmodelsreservation&#45;&gt;modulesreservationmodelspubliceventreservation</title>
<path fill="none" stroke="#003049" stroke-width="1.8" d="M902.62,-262.23C954.32,-354.61 1064.32,-551.11 1120.22,-650.99"/>
<polygon fill="#003049" stroke="#003049" stroke-width="1.8" points="1117.01,-652.41 1124.95,-659.42 1123.12,-648.99 1117.01,-652.41"/>
<text text-anchor="middle" x="997.75" y="-435.95" font-family="Helvetica Neue" font-size="14.00"> </text>
<text text-anchor="middle" x="1087.17" y="-443.31" font-family="Helvetica Neue" font-size="14.00">HasManyThrough</text>
<text text-anchor="middle" x="1087.17" y="-426.06" font-family="Helvetica Neue" font-size="14.00">publicEventReservations</text>
</g>
<!-- modulesreservationmodelsreservation&#45;&gt;modulesreservationmodelspublicevent -->
<g id="edge22" class="edge">
<title>modulesreservationmodelsreservation:id&#45;&gt;modulesreservationmodelspublicevent:reservation_id</title>
<path fill="none" stroke="#d62828" stroke-width="1.8" d="M923.86,-224.56C1028.72,-251.26 1273.01,-313.44 1382.03,-341.2"/>
<polygon fill="#d62828" stroke="#d62828" stroke-width="1.8" points="1387.07,-337.32 1384.6,-347.01 1382.66,-346.52 1385.13,-336.83 1387.07,-337.32"/>
<polyline fill="none" stroke="#d62828" stroke-width="1.8" points="1386.8,-342.41 1381.96,-341.18"/>
<text text-anchor="middle" x="1155.38" y="-308.95" font-family="Helvetica Neue" font-size="14.00"> </text>
<text text-anchor="middle" x="1116.57" y="-269.58" font-family="Helvetica Neue" font-size="14.00">HasOne</text>
<text text-anchor="middle" x="1116.57" y="-252.33" font-family="Helvetica Neue" font-size="14.00">publicEvent</text>
</g>
<!-- modulesusermodelsotp&#45;&gt;modulesusermodelsuser -->
<g id="edge24" class="edge">
<title>modulesusermodelsotp:user_id&#45;&gt;modulesusermodelsuser:id</title>
<path fill="none" stroke="#f77f00" stroke-width="1.8" d="M813.25,-552.54C780.75,-564.91 747,-577.75 747,-577.75 747,-577.75 676.58,-686.13 632.16,-754.5"/>
<polygon fill="#f77f00" stroke="#f77f00" stroke-width="1.8" points="813.35,-552.51 824.3,-553.15 818.59,-550.51 822.13,-549.16 822.13,-549.16 822.13,-549.16 818.59,-550.51 821.1,-544.74 813.35,-552.51"/>
<polygon fill="#f77f00" stroke="#f77f00" stroke-width="1.8" points="634.27,-760.42 625.89,-754.97 626.98,-753.3 635.36,-758.75 634.27,-760.42"/>
<polyline fill="none" stroke="#f77f00" stroke-width="1.8" points="629.54,-758.54 632.26,-754.34"/>
<text text-anchor="middle" x="749.25" y="-580.95" font-family="Helvetica Neue" font-size="14.00"> </text>
<text text-anchor="middle" x="741.14" y="-640.35" font-family="Helvetica Neue" font-size="14.00">BelongsTo</text>
<text text-anchor="middle" x="741.14" y="-623.1" font-family="Helvetica Neue" font-size="14.00">user</text>
</g>
<!-- modulesnotificationmodelsusernotification -->
<g id="node18" class="node">
<title>modulesnotificationmodelsusernotification</title>
<polygon fill="none" stroke="black" points="119.5,-1203 0,-1203 0,-1103 119.5,-1103 119.5,-1203"/>
<polygon fill="#d3d3d3" stroke="none" points="0,-1163.75 0,-1203 119.5,-1203 119.5,-1163.75 0,-1163.75"/>
<polygon fill="none" stroke="black" points="0,-1163.75 0,-1203 119.5,-1203 119.5,-1163.75 0,-1163.75"/>
<text text-anchor="start" x="11" y="-1178.7" font-family="Helvetica Neue" font-size="14.00" fill="#333333">UserNotification</text>
</g>
</g>
</svg>
